<?xml version="1.0" encoding="utf-8" ?><svg xmlns="http://www.w3.org/2000/svg" xmlns:xlink="http://www.w3.org/1999/xlink" width="124" height="124" viewBox="0 0 124 124"><path fill="#EC3636" transform="scale(0.155 0.155)" d="M534.297 211.018C544.169 210.754 554.925 210.949 564.858 210.949L620.655 210.979C615.788 223.436 608.806 237.96 603.161 250.14L586.315 287.191L519.72 433.205L471.603 539.008L456.496 572.149C454.777 575.95 450.663 585.781 448.836 588.904L448.116 589.037C429.136 589.757 409.597 588.821 390.561 589.177C381.17 589.352 371.214 589.303 361.827 589.024C365.011 580.049 372.574 564.615 376.669 555.597L407.194 488.757L504.429 275.327C507.522 268.557 532.061 213.121 534.297 211.018Z"/><path fill="#EC3636" transform="scale(0.155 0.155)" d="M181.615 211.036C191.459 210.71 202.615 210.945 212.549 210.945L268.091 210.985C264.661 220.585 257.571 234.835 253.166 244.504L225.81 304.658L141.078 490.784L115.283 547.251C109.601 559.633 103.923 572.347 98.2781 584.776C97.4665 586.563 97.6895 588.259 95.7551 589.043C86.1462 589.506 74.0265 589.179 64.1822 589.178L8.70535 589.1C22.6542 560.575 35.7933 529.725 49.0754 500.74L148.69 282.261L172.809 229.138C174.275 225.953 180.076 212.677 181.615 211.036Z"/><path fill="#EC3636" transform="scale(0.155 0.155)" d="M357.808 211.041C367.469 210.68 378.82 210.944 388.597 210.945L443.751 210.98C439.134 222.576 432.9 235.455 427.665 246.98L399.542 308.743L322.726 477.334L284.878 560.45L275.416 581.148C274.367 583.487 273.367 586.295 272.196 588.509C271.932 589.008 271.563 588.906 270.801 589.06C266.538 589.237 261.923 589.229 257.648 589.157C233.504 588.75 208.98 589.769 184.873 589.021C187.739 581.105 193.8 568.707 197.383 560.811L222.846 504.969L315.182 302.23L341.037 245.52C345.89 234.787 350.9 223.973 355.799 213.254C356.497 211.727 356.542 211.785 357.808 211.041Z"/><path fill="#EC3636" transform="scale(0.155 0.155)" d="M704.672 211.08C714.386 210.642 726.149 210.937 735.991 210.938L791.071 210.992C786.186 223.192 779.212 237.336 773.664 249.529L738.4 326.894L703.826 402.913C698.538 414.471 693.208 426.172 687.921 437.738C687.561 438.524 687.348 438.653 686.649 439.079C658.585 438.943 627.763 439.794 600.044 438.834C602.805 433.767 605.263 427.55 607.683 422.185L620.463 394.107L669.4 286.684L691.723 237.862C693.471 234.051 702.809 212.196 704.672 211.08Z"/></svg>